<?xml version="1.0" encoding="utf-8"?>
<!-- Generator: Adobe Illustrator 22.1.0, SVG Export Plug-In . SVG Version: 6.00 Build 0)  -->
<svg version="1.1" id="Layer_1" xmlns="http://www.w3.org/2000/svg" xmlns:xlink="http://www.w3.org/1999/xlink" x="0px" y="0px"
	 viewBox="0 0 300 124" style="enable-background:new 0 0 300 124;" xml:space="preserve">
<style type="text/css">
	.st0{clip-path:url(#SVGID_2_);}
	.st1{fill:#452979;}
</style>
<g>
	<defs>
		<path id="SVGID_1_" d="M44.4,120.7c-1.3,0-2.5-0.4-3.7-1.1c-3.1-2-4-6.2-2-9.3l3-4.6c11.3-17,41.5-62.3,29.2-85.3
			c-1.1-2-2.5-3.1-4.6-3.5c-3.1-0.5-7.4,0.6-11.7,2.9c7.8,7.3,12.9,17.6,9,25.5c-4.9,10-13.3,14.7-22.4,12.4
			c-8.8-2.2-16.1-10.9-15.9-19c0.1-3.9,2-9.6,5.4-15c-3.8,0.5-7.3,2.7-10.5,6.6c-2.9,3.6-3.9,7.3-3.3,11.6
			c1.9,13.3,19.1,27.7,25.5,32.2c3.1,2.1,3.8,6.3,1.7,9.4c-2.1,3.1-6.3,3.8-9.4,1.7C33.6,84.5,6.6,65.6,3.5,43.9
			c-1.2-8.1,0.9-15.4,6.2-22c8.7-10.7,20.5-14.2,32.3-10C49.5,6.4,59.4,2,68.7,3.6C74.9,4.7,79.8,8.3,82.8,14
			c16.1,30.1-16.1,78.5-29.9,99.2l-2.9,4.4C48.7,119.6,46.6,120.7,44.4,120.7 M43.9,28.3c-3.7,4.6-5.1,9.6-5.1,10.8
			c0,1.2,2.3,4.7,5.7,5.5c1,0.3,4,1,7.1-5.3C51.8,37.7,48.9,32.4,43.9,28.3"/>
	</defs>
	<use xlink:href="#SVGID_1_"  style="overflow:visible;fill-rule:evenodd;clip-rule:evenodd;fill:#452979;"/>
	<clipPath id="SVGID_2_">
		<use xlink:href="#SVGID_1_"  style="overflow:visible;"/>
	</clipPath>
	<g class="st0">
		<defs>
			<rect id="SVGID_3_" x="-899.2" y="-3162.5" width="1869.6" height="3325.4"/>
		</defs>
		<use xlink:href="#SVGID_3_"  style="overflow:visible;fill:#452979;"/>
		<clipPath id="SVGID_4_">
			<use xlink:href="#SVGID_3_"  style="overflow:visible;"/>
		</clipPath>
	</g>
</g>
<g>
	<path class="st1" d="M74.2,110.8l7.1-5.2c2.4,4.3,5.5,6.1,9,6.1c5.4,0,8.2-2.9,8.2-11.2V61.7h10.3v39.8c0,10.6-5.2,19.2-17.3,19.2
		C83.4,120.7,77.8,117.4,74.2,110.8z"/>
	<path class="st1" d="M119.3,112.2l6-7.1c4.1,4,9.7,6.6,15.1,6.6c6.5,0,10.1-3,10.1-7.5c0-4.8-3.7-6.3-9-8.5l-7.9-3.4
		c-5.7-2.4-11.7-6.9-11.7-15.4c0-9.2,8.2-16.3,19.5-16.3c6.8,0,13.3,2.8,17.9,7.4l-5.3,6.5c-3.7-3.1-7.6-5-12.6-5
		c-5.5,0-9.1,2.6-9.1,6.8c0,4.6,4.4,6.2,9.2,8.2l7.8,3.3c6.9,2.9,11.7,7.2,11.7,15.6c0,9.4-7.8,17.2-20.8,17.2
		C132.3,120.7,124.8,117.6,119.3,112.2z"/>
	<path class="st1" d="M166.3,112.7l4.9-6.5c3.4,3.4,7.7,6.2,13.4,6.2c6.2,0,10.4-3.2,10.4-8.5c0-5.8-3.7-9.6-16.5-9.6v-7.4
		c11,0,14.6-3.8,14.6-9c0-4.7-3.1-7.5-8.3-7.5c-4.4,0-7.9,2.1-11.3,5.3l-5.3-6.3c4.8-4.3,10.2-7.1,17-7.1c10.8,0,18.2,5.4,18.2,14.9
		c0,6.3-3.7,10.5-9.8,13v0.4c6.7,1.7,11.7,6.5,11.7,14c0,10.3-9,16.3-19.8,16.3C176.3,120.7,170.2,117.2,166.3,112.7z"/>
	<path class="st1" d="M213.1,91.2c0-19,7.4-29,19.1-29c11.7,0,19.1,10,19.1,29c0,19-7.4,29.5-19.1,29.5
		C220.6,120.7,213.1,110.3,213.1,91.2z M241.7,91.2c0-15.9-3.9-21-9.4-21c-5.5,0-9.4,5.1-9.4,21c0,15.9,3.9,21.5,9.4,21.5
		C237.7,112.7,241.7,107.2,241.7,91.2z"/>
	<path class="st1" d="M258.6,91.2c0-19,7.4-29,19.1-29c11.7,0,19.1,10,19.1,29c0,19-7.4,29.5-19.1,29.5
		C266,120.7,258.6,110.3,258.6,91.2z M287.1,91.2c0-15.9-3.9-21-9.4-21s-9.4,5.1-9.4,21c0,15.9,3.9,21.5,9.4,21.5
		S287.1,107.2,287.1,91.2z"/>
</g>
</svg>
