<?xml version="1.0" encoding="iso-8859-1"?>
<!-- Generator: Adobe Illustrator 16.0.0, SVG Export Plug-In . SVG Version: 6.00 Build 0)  -->
<!DOCTYPE svg PUBLIC "-//W3C//DTD SVG 1.1//EN" "http://www.w3.org/Graphics/SVG/1.1/DTD/svg11.dtd">
<svg xmlns="http://www.w3.org/2000/svg" xmlns:xlink="http://www.w3.org/1999/xlink" version="1.1" id="Capa_1" x="0px" y="0px" width="512px" height="512px" viewBox="0 0 56.596 56.596" style="enable-background:new 0 0 56.596 56.596;" xml:space="preserve">
<g>
	<g>
		<path d="M50.997,17.025l-9.729-7.489V1.732C41.269,0.775,40.495,0,39.54,0c-0.957,0-1.732,0.775-1.732,1.732v5.137l-8.452-6.51    c-0.624-0.479-1.491-0.479-2.114,0L5.598,17.025c-0.758,0.584-0.898,1.671-0.314,2.429c0.583,0.758,1.67,0.898,2.428,0.314    l1.902-1.464v19.717c0,0.955,0.774,1.73,1.73,1.73h33.692c0.957,0,1.729-0.775,1.729-1.73V18.138l2.118,1.63    c0.314,0.243,0.688,0.36,1.058,0.36c0.52,0,1.029-0.232,1.373-0.675C51.898,18.696,51.756,17.609,50.997,17.025z M43.304,36.289    H13.075V15.638L28.298,3.916l15.006,11.555V36.289z" fill="#91DC5A"/>
		<path d="M24.081,50.371h3.013c-0.081-0.15-0.177-0.297-0.305-0.424l-6.392-6.395c-0.691-0.689-1.812-0.689-2.501,0    c-0.033,0.031-0.057,0.067-0.086,0.104l5.782,5.783C23.858,49.705,24.019,50.032,24.081,50.371z" fill="#91DC5A"/>
		<path d="M16.539,43.051c-0.691-0.69-1.812-0.69-2.502,0c-0.474,0.476-0.615,1.148-0.438,1.752    c0.653-0.146,1.363,0.029,1.869,0.539l5.032,5.029h2.918c-0.062-0.34-0.225-0.666-0.488-0.93l-5.781-5.783L16.539,43.051z" fill="#91DC5A"/>
		<path d="M42.728,47.307c-0.263-0.846-1.045-1.42-1.931-1.42h-5.118h-7.076c-1.115,0-2.021,0.904-2.021,2.021    c0,1.119,0.905,2.022,2.021,2.022h5.503l0.239,0.947h-8.01h-3.012h-2.917l-5.031-5.031c-0.508-0.508-1.218-0.686-1.87-0.539    c-0.362,0.08-0.708,0.258-0.989,0.539c-0.79,0.789-0.79,2.068,0,2.859l6.717,7.205c0.384,0.436,0.937,0.686,1.517,0.686h21.902    c0.643,0,1.248-0.307,1.627-0.824c0.381-0.518,0.494-1.186,0.303-1.799L42.728,47.307z" fill="#91DC5A"/>
	</g>
</g>
<g>
</g>
<g>
</g>
<g>
</g>
<g>
</g>
<g>
</g>
<g>
</g>
<g>
</g>
<g>
</g>
<g>
</g>
<g>
</g>
<g>
</g>
<g>
</g>
<g>
</g>
<g>
</g>
<g>
</g>
</svg>
